# xmcd
#
# Track frame offsets:
#	150
#	23112
#	35852
#	49287
#	60480
#	73550
#	87092
#	98712
#	112022
#	124067
#	136757
#	148595
#	158250
#	170475
#	183347
#	195232
#	209395
#	222977
#	235527
#	249882
#
# Disc length: 3486
#
# Revision: 3
# Processed by: cddbd v1.5.1PL0 Copyright (c) Steve Scherf et al.
# Submitted via: CDex 1.50
# Normalized: r2:DSETVAR1,TDELIM( - )
#
DISCID=0d0d9c14
DTITLE=Various Artist - Magic Soul [CD 1)
DYEAR=1996
DGENRE=Soul
TTITLE0=Ray Charles - What'd I Say
TTITLE1=Smokey Robinson and The Miracles - Shop Around
TTITLE2=Ben E King - Stand By Me
TTITLE3=The Marvelettes - Please Mr Postman
TTITLE4=Booker T and The Mgs - Green Onions
TTITLE5=The Drifters - On Broadway
TTITLE6=The Supremes - Where Did Our Love Go
TTITLE7=The Temptations - My Girl
TTITLE8=Martha Reeves and The Vandellas - Dancing In The Street
TTITLE9=Mary Wells - My Guy
TTITLE10=Wilson Pickett - In The Midnight Hour
TTITLE11=James Brown - Papa's Got A Brand New Bag
TTITLE12=Otis Redding - Fa-fa-fa-fa-fa (Sad Song)
TTITLE13=Percy Sledge - When A Man Loves A Woman
TTITLE14=The Mar-keys - Last Night
TTITLE15=Eddie Floyd - Knock On Wood
TTITLE16=The Four Tops - Reach Out (I'll Be There)
TTITLE17=James Brown - It's A Man's Man's World
TTITLE18=Marvin Gaye - I Heard It Through The Grapevine
TTITLE19=Stevie Wonder - I Was Made To Love Her
EXTD=YEAR: 1996
EXTT0=
EXTT1=
EXTT2=
EXTT3=
EXTT4=
EXTT5=
EXTT6=
EXTT7=
EXTT8=
EXTT9=
EXTT10=
EXTT11=
EXTT12=
EXTT13=
EXTT14=
EXTT15=
EXTT16=
EXTT17=
EXTT18=
EXTT19=
PLAYORDER=
